<svg xmlns="http://www.w3.org/2000/svg" xmlns:xlink="http://www.w3.org/1999/xlink" xmlns:inkscape="http://www.inkscape.org/namespaces/inkscape" version="1.1" width="600" height="600" viewBox="0 0 600 600">
<defs>
<clipPath id="clip_1">
<path transform="matrix(1,0,0,-1,0,600)" d="M0 600H600V0H0Z"/>
</clipPath>
</defs>
<g clip-path="url(#clip_1)">
<path transform="matrix(1,0,0,-1,161.3785,96.65469)" d="M0 0C-22.749-25.592-15.96-73.993 30.468-127.675-4.353-124.773-68.19-120.421-79.798-134.93-91.404-149.438-49.329-194.415-56.584-217.629-15.96-197.316-2.902-169.75 27.566-177.005 24.664-198.768 24.664-207.473 2.901-236.489-18.861-265.507-59.485-394.633 39.173-426.552 137.831-458.471 145.086-432.355 192.964-432.355 240.842-432.355 288.721-468.627 335.147-410.593 381.575-352.559 356.911-224.883 291.622-146.536 293.073-132.028 352.559-82.698 327.894-40.624 319.188-29.017 265.507-29.017 252.449-26.115 265.507 7.255 249.547 49.329 217.628 33.37 185.71 17.41 145.086-34.82 132.027-36.271 125.502-36.996 98.098-33.005 71.092-18.861 44.059-4.703 17.419 19.597 0 0" fill="#231f20"/>
<path transform="matrix(1,0,0,-1,217.9615,233.03562)" d="M0 0-4.353-39.173C-4.353-39.173 63.838-50.779 92.855-46.427 121.872-42.074 190.062-24.664 201.669-29.017 213.276-33.369 213.276-7.254 188.611-2.901 163.947 1.451 85.601-8.705 63.838-5.803 42.075-2.901 0 0 0 0" fill="#ffffff"/>
</g>
</svg>
